<svg width="55" height="60" viewBox="0 0 55 60" fill="none" xmlns="http://www.w3.org/2000/svg">
<path d="M34.7 58.8H6.35C5.11756 58.7974 3.93634 58.3066 3.06487 57.4351C2.1934 56.5637 1.70264 55.3824 1.7 54.15V5.85C1.70264 4.61756 2.1934 3.43634 3.06487 2.56487C3.93634 1.6934 5.11756 1.20264 6.35 1.2H30.86C31.3029 1.20781 31.7431 1.27165 32.17 1.39C32.17 1.39 32.17 1.46 32.17 1.5V12.9C32.1726 13.8142 32.537 14.6902 33.1834 15.3366C33.8298 15.983 34.7058 16.3474 35.62 16.35H47H47.1C47.2273 16.7957 47.2946 17.2565 47.3 17.72V36.6C47.3 36.7591 47.3632 36.9117 47.4757 37.0243C47.5883 37.1368 47.7409 37.2 47.9 37.2C48.0591 37.2 48.2117 37.1368 48.3243 37.0243C48.4368 36.9117 48.5 36.7591 48.5 36.6V17.7C48.5023 16.8589 48.3382 16.0257 48.0173 15.2483C47.6964 14.4709 47.2249 13.7645 46.63 13.17L35.41 1.89C34.2032 0.682735 32.567 0.00309324 30.86 0L6.35 0C4.79848 0 3.31051 0.616337 2.21343 1.71343C1.11634 2.81051 0.5 4.29848 0.5 5.85V54.15C0.5 55.7015 1.11634 57.1895 2.21343 58.2866C3.31051 59.3837 4.79848 60 6.35 60H34.7C34.8591 60 35.0117 59.9368 35.1243 59.8243C35.2368 59.7117 35.3 59.5591 35.3 59.4C35.3 59.2409 35.2368 59.0883 35.1243 58.9757C35.0117 58.8632 34.8591 58.8 34.7 58.8ZM45.78 14C46.1055 14.3382 46.3846 14.7182 46.61 15.13H35.61C35.0133 15.13 34.441 14.8929 34.019 14.471C33.5971 14.049 33.36 13.4767 33.36 12.88V1.88C33.8052 2.11099 34.2131 2.40764 34.57 2.76L45.78 14Z" fill="#165DBA"/>
<path d="M43.5504 38.0997C41.3868 38.1096 39.2747 38.7602 37.4806 39.9694C35.6865 41.1786 34.2908 42.8922 33.4696 44.8939C32.6485 46.8956 32.4388 49.0957 32.8669 51.2164C33.2951 53.3372 34.3419 55.2837 35.8752 56.81C37.4086 58.3364 39.3598 59.3744 41.4825 59.7928C43.6052 60.2113 45.8043 59.9916 47.8022 59.1613C49.8002 58.3311 51.5074 56.9276 52.7084 55.128C53.9094 53.3284 54.5504 51.2133 54.5504 49.0497C54.5504 47.6075 54.2655 46.1795 53.7121 44.8478C53.1587 43.516 52.3477 42.3066 51.3256 41.2892C50.3035 40.2717 49.0904 39.4662 47.7561 38.9188C46.4218 38.3715 44.9926 38.0931 43.5504 38.0997ZM33.8004 49.0497C33.8006 46.712 34.6459 44.4532 36.1804 42.6897L49.9104 56.4297C48.4978 57.6509 46.764 58.4403 44.9154 58.704C43.0669 58.9676 41.1815 58.6943 39.4839 57.9166C37.7863 57.1389 36.348 55.8896 35.3403 54.3176C34.3327 52.7455 33.7981 50.917 33.8004 49.0497ZM50.8004 55.5897L37.0004 41.8397C38.8405 40.0978 41.2875 39.1423 43.821 39.1766C46.3546 39.2108 48.7749 40.232 50.5672 42.023C52.3596 43.8141 53.3825 46.2336 53.4186 48.7672C53.4547 51.3007 52.501 53.7484 50.7604 55.5897H50.8004Z" fill="#165DBA"/>
</svg>
