<svg width="58" height="58" viewBox="0 0 58 58" fill="none" xmlns="http://www.w3.org/2000/svg">
<path d="M37.5644 30.2949H8.56439C8.40255 30.3145 8.25349 30.3926 8.14536 30.5146C8.03724 30.6366 7.97754 30.794 7.97754 30.957C7.97754 31.1201 8.03724 31.2774 8.14536 31.3994C8.25349 31.5214 8.40255 31.5996 8.56439 31.6192H10.5461V51.5519C10.5435 52.3977 10.7079 53.2357 11.0298 54.0178C11.3517 54.8 11.8248 55.5109 12.422 56.1099C13.0192 56.7089 13.7287 57.1841 14.5099 57.5084C15.2911 57.8326 16.1286 57.9995 16.9744 57.9995H34.9351C35.1094 57.9995 35.2766 57.9303 35.3999 57.807C35.5231 57.6837 35.5924 57.5165 35.5924 57.3422C35.5924 57.1679 35.5231 57.0007 35.3999 56.8774C35.2766 56.7541 35.1094 56.6849 34.9351 56.6849H16.9744C15.6189 56.6823 14.3197 56.1427 13.3613 55.1843C12.4029 54.2258 11.8633 52.9266 11.8607 51.5712V31.6192H37.5644C37.6581 31.6305 37.7531 31.6219 37.8432 31.5938C37.9332 31.5657 38.0163 31.5188 38.0869 31.4562C38.1576 31.3936 38.2141 31.3168 38.2528 31.2307C38.2915 31.1447 38.3115 31.0514 38.3115 30.957C38.3115 30.8627 38.2915 30.7694 38.2528 30.6833C38.2141 30.5973 38.1576 30.5204 38.0869 30.4579C38.0163 30.3953 37.9332 30.3484 37.8432 30.3203C37.7531 30.2922 37.6581 30.2835 37.5644 30.2949Z" fill="#165DBA"/>
<path d="M34.9354 40.6777H19.9327C19.7584 40.6777 19.5912 40.747 19.4679 40.8703C19.3446 40.9935 19.2754 41.1607 19.2754 41.3351C19.2754 41.5094 19.3446 41.6766 19.4679 41.7999C19.5912 41.9231 19.7584 41.9924 19.9327 41.9924H34.9354C35.1097 41.9924 35.2769 41.9231 35.4002 41.7999C35.5235 41.6766 35.5927 41.5094 35.5927 41.3351C35.5927 41.1607 35.5235 40.9935 35.4002 40.8703C35.2769 40.747 35.1097 40.6777 34.9354 40.6777Z" fill="#165DBA"/>
<path d="M51.5717 11.8417H47.4537V5.249C47.4486 3.8551 46.8913 2.52004 45.9038 1.53622C44.9164 0.552391 43.5793 -9.38569e-06 42.1854 1.19604e-10L15.8147 1.19603e-10C14.4174 1.19605e-10 13.0774 0.555055 12.0894 1.54306C11.1014 2.53106 10.5464 3.87108 10.5464 5.26833V11.861H6.42836C4.72681 11.861 3.09466 12.5356 1.88967 13.737C0.684674 14.9383 0.00514654 16.5685 2.90753e-05 18.27V37.0523C-0.00251471 37.8981 0.161882 38.7361 0.483797 39.5183C0.805712 40.3004 1.27882 41.0114 1.876 41.6104C2.47317 42.2093 3.18269 42.6846 3.96387 43.0088C4.74506 43.3331 5.58255 43.5 6.42836 43.5H8.5647C8.73903 43.5 8.90623 43.4307 9.0295 43.3075C9.15277 43.1842 9.22203 43.017 9.22203 42.8427C9.22203 42.6683 9.15277 42.5011 9.0295 42.3779C8.90623 42.2546 8.73903 42.1853 8.5647 42.1853H6.42836C5.07292 42.1828 3.77372 41.6432 2.81528 40.6848C1.85683 39.7263 1.31725 38.4271 1.3147 37.0717V18.27C1.31726 16.9154 1.85715 15.6172 2.81587 14.6603C3.77459 13.7034 5.07381 13.166 6.42836 13.166H51.5717C52.9263 13.166 54.2255 13.7034 55.1842 14.6603C56.1429 15.6172 56.6828 16.9154 56.6854 18.27V38.8697C56.6854 39.044 56.7546 39.2112 56.8779 39.3345C57.0012 39.4577 57.1684 39.527 57.3427 39.527C57.517 39.527 57.6842 39.4577 57.8075 39.3345C57.9308 39.2112 58 39.044 58 38.8697V18.27C58 16.5651 57.3228 14.93 56.1172 13.7245C54.9117 12.5189 53.2766 11.8417 51.5717 11.8417ZM46.139 11.8417H11.861V5.249C11.8636 4.20121 12.2809 3.19706 13.0219 2.45615C13.7628 1.71525 14.7669 1.29789 15.8147 1.29533H42.1854C43.2332 1.29789 44.2373 1.71525 44.9782 2.45615C45.7191 3.19706 46.1365 4.20121 46.139 5.249V11.8417Z" fill="#165DBA"/>
<path d="M10.5464 17.7775C10.5464 17.6031 10.4772 17.4359 10.3539 17.3126C10.2306 17.1894 10.0634 17.1201 9.88911 17.1201H7.25011C7.07577 17.1201 6.90858 17.1894 6.7853 17.3126C6.66203 17.4359 6.59277 17.6031 6.59277 17.7775C6.59277 17.9518 6.66203 18.119 6.7853 18.2423C6.90858 18.3655 7.07577 18.4348 7.25011 18.4348H9.88911C10.0627 18.4323 10.2284 18.3622 10.3511 18.2395C10.4739 18.1168 10.5439 17.951 10.5464 17.7775Z" fill="#165DBA"/>
<path d="M34.9357 47.4346H20.4357C20.2613 47.4346 20.0941 47.5038 19.9709 47.6271C19.8476 47.7504 19.7783 47.9176 19.7783 48.0919C19.7783 48.2662 19.8476 48.4334 19.9709 48.5567C20.0941 48.68 20.2613 48.7492 20.4357 48.7492H34.9357C35.11 48.7492 35.2772 48.68 35.4005 48.5567C35.5237 48.4334 35.593 48.2662 35.593 48.0919C35.593 47.9176 35.5237 47.7504 35.4005 47.6271C35.2772 47.5038 35.11 47.4346 34.9357 47.4346Z" fill="#165DBA"/>
<path d="M53.5529 40.2515V34.9542H54.5196C54.6814 34.9346 54.8305 34.8564 54.9386 34.7344C55.0468 34.6124 55.1064 34.4551 55.1064 34.292C55.1064 34.129 55.0468 33.9717 54.9386 33.8497C54.8305 33.7277 54.6814 33.6495 54.5196 33.6299H39.7103C39.5484 33.6495 39.3994 33.7277 39.2912 33.8497C39.1831 33.9717 39.1234 34.129 39.1234 34.292C39.1234 34.4551 39.1831 34.6124 39.2912 34.7344C39.3994 34.8564 39.5484 34.9346 39.7103 34.9542H40.6769V40.2515C40.6804 41.4054 41.0158 42.5339 41.6432 43.5024C42.2705 44.4708 43.1633 45.2383 44.2149 45.7132C43.1601 46.198 42.2673 46.9764 41.6433 47.9552C41.0193 48.9341 40.6905 50.072 40.6963 51.2329V56.7525H39.7296C39.5553 56.7525 39.3881 56.8218 39.2648 56.9451C39.1415 57.0683 39.0723 57.2355 39.0723 57.4099C39.0723 57.5842 39.1415 57.7514 39.2648 57.8747C39.3881 57.998 39.5553 58.0672 39.7296 58.0672H54.5389C54.7133 58.0672 54.8805 57.998 55.0037 57.8747C55.127 57.7514 55.1963 57.5842 55.1963 57.4099C55.1963 57.2355 55.127 57.0683 55.0037 56.9451C54.8805 56.8218 54.7133 56.7525 54.5389 56.7525H53.5723V51.2329C53.5671 50.0781 53.2311 48.9491 52.604 47.9794C51.977 47.0097 51.0852 46.2401 50.0343 45.7615C51.0898 45.2804 51.9836 44.5042 52.6079 43.5266C53.2322 42.5489 53.5604 41.4115 53.5529 40.2515ZM52.1996 51.2329V56.7525H42.0206V51.2329C42.0232 49.9877 42.5189 48.7942 43.3994 47.9137C44.2799 47.0332 45.4734 46.5374 46.7186 46.5349H47.5306C48.7708 46.5451 49.9568 47.0442 50.8311 47.9239C51.7053 48.8036 52.1971 49.9927 52.1996 51.2329ZM47.5306 44.9495H46.7186C45.4734 44.947 44.2799 44.4512 43.3994 43.5707C42.5189 42.6902 42.0232 41.4967 42.0206 40.2515V34.9542H52.1996V40.2515C52.1971 41.4918 51.7053 42.6809 50.8311 43.5605C49.9568 44.4402 48.7708 44.9394 47.5306 44.9495Z" fill="#165DBA"/>
</svg>
