<svg width="58" height="57" viewBox="0 0 58 57" fill="none" xmlns="http://www.w3.org/2000/svg">
<path d="M34.9314 53.9329H15.7961C14.5274 53.9329 13.3106 53.4289 12.4135 52.5318C11.5163 51.6346 11.0123 50.4178 11.0123 49.1491V31.8604H34.9314C35.0938 31.8604 35.2495 31.7959 35.3644 31.6811C35.4792 31.5662 35.5437 31.4105 35.5437 31.2481C35.5437 31.0857 35.4792 30.9299 35.3644 30.8151C35.2495 30.7003 35.0938 30.6357 34.9314 30.6357H7.96983C7.80743 30.6357 7.65168 30.7003 7.53685 30.8151C7.42201 30.9299 7.3575 31.0857 7.3575 31.2481C7.35621 31.3288 7.37116 31.409 7.40148 31.4839C7.43179 31.5588 7.47685 31.6268 7.53397 31.6839C7.59109 31.741 7.6591 31.7861 7.73398 31.8164C7.80885 31.8467 7.88906 31.8617 7.96983 31.8604H9.80681V49.1491C9.80934 50.7317 10.4392 52.2488 11.5582 53.3679C12.6773 54.4869 14.1944 55.1168 15.777 55.1193H34.9122C35.0746 55.1193 35.2304 55.0548 35.3452 54.9399C35.4601 54.8251 35.5246 54.6694 35.5246 54.507C35.5246 54.3446 35.4601 54.1888 35.3452 54.074C35.2304 53.9591 35.0746 53.8946 34.9122 53.8946L34.9314 53.9329Z" fill="#165DBA"/>
<path d="M31.1049 39.0654H18.5235C18.3611 39.0654 18.2053 39.1299 18.0905 39.2448C17.9756 39.3596 17.9111 39.5154 17.9111 39.6778C17.9111 39.8402 17.9756 39.9959 18.0905 40.1107C18.2053 40.2256 18.3611 40.2901 18.5235 40.2901H31.1049C31.1853 40.2901 31.2649 40.2742 31.3392 40.2435C31.4135 40.2127 31.481 40.1676 31.5379 40.1107C31.5947 40.0539 31.6398 39.9864 31.6706 39.9121C31.7014 39.8378 31.7172 39.7582 31.7172 39.6778C31.7172 39.5973 31.7014 39.5177 31.6706 39.4434C31.6398 39.3691 31.5947 39.3016 31.5379 39.2448C31.481 39.1879 31.4135 39.1428 31.3392 39.112C31.2649 39.0813 31.1853 39.0654 31.1049 39.0654Z" fill="#165DBA"/>
<path d="M6.27639 17.5752C6.11399 17.5752 5.95825 17.6397 5.84341 17.7545C5.72858 17.8694 5.66406 18.0251 5.66406 18.1875C5.66406 18.3499 5.72858 18.5057 5.84341 18.6205C5.95825 18.7353 6.11399 18.7999 6.27639 18.7999H9.3476C9.51 18.7999 9.66575 18.7353 9.78058 18.6205C9.89541 18.5057 9.95993 18.3499 9.95993 18.1875C9.95993 18.0251 9.89541 17.8694 9.78058 17.7545C9.66575 17.6397 9.51 17.5752 9.3476 17.5752H6.27639Z" fill="#165DBA"/>
<path d="M31.1049 45.1885H18.5235C18.3611 45.1885 18.2053 45.253 18.0905 45.3678C17.9756 45.4827 17.9111 45.6384 17.9111 45.8008C17.9111 45.9632 17.9756 46.119 18.0905 46.2338C18.2053 46.3486 18.3611 46.4131 18.5235 46.4131H31.1049C31.2673 46.4131 31.423 46.3486 31.5379 46.2338C31.6527 46.119 31.7172 45.9632 31.7172 45.8008C31.7172 45.6384 31.6527 45.4827 31.5379 45.3678C31.423 45.253 31.2673 45.1885 31.1049 45.1885Z" fill="#165DBA"/>
<path d="M7.96983 40.4425H5.9702C4.70145 40.4425 3.48467 39.9385 2.58753 39.0413C1.69039 38.1442 1.18638 36.9274 1.18638 35.6587V17.0018C1.18638 15.7331 1.69039 14.5163 2.58753 13.6191C3.48467 12.722 4.70145 12.218 5.9702 12.218H47.9529C49.2217 12.218 50.4384 12.722 51.3356 13.6191C52.2327 14.5163 52.7367 15.7331 52.7367 17.0018V32.4727C52.7367 32.6351 52.8012 32.7908 52.9161 32.9056C53.0309 33.0205 53.1866 33.085 53.349 33.085C53.5114 33.085 53.6672 33.0205 53.782 32.9056C53.8969 32.7908 53.9614 32.6351 53.9614 32.4727V17.0018C53.9588 15.4192 53.329 13.9021 52.21 12.783C51.0909 11.664 49.5738 11.0341 47.9912 11.0316H44.1641V4.89877C44.1642 4.25224 44.0362 3.6121 43.7876 3.01527C43.5391 2.41843 43.1748 1.8767 42.7159 1.42132C42.2569 0.965939 41.7124 0.60591 41.1136 0.361994C40.5149 0.118077 39.8737 -0.0049015 39.2272 0.000149508H15.9301C14.6309 0.000149508 13.3849 0.516251 12.4662 1.43492C11.5476 2.35359 11.0315 3.59958 11.0315 4.89877V11.0316H5.9702C4.38758 11.0341 2.8705 11.664 1.75142 12.783C0.632343 13.9021 0.00253017 15.4192 0 17.0018V35.6969C0.00253017 37.2796 0.632343 38.7966 1.75142 39.9157C2.8705 41.0348 4.38758 41.6646 5.9702 41.6671H7.96983C8.13223 41.6671 8.28797 41.6026 8.40281 41.4878C8.51764 41.373 8.58216 41.2172 8.58216 41.0548C8.58216 40.8924 8.51764 40.7367 8.40281 40.6218C8.28797 40.507 8.13223 40.4425 7.96983 40.4425ZM12.2944 4.89877C12.2969 3.9353 12.6808 3.01201 13.3621 2.33073C14.0433 1.64946 14.9666 1.2656 15.9301 1.26308H39.2272C40.1907 1.2656 41.114 1.64946 41.7953 2.33073C42.4766 3.01201 42.8604 3.9353 42.8629 4.89877V10.9838H12.2944V4.89877Z" fill="#165DBA"/>
<path d="M45.9249 56.4397C43.5369 56.4397 41.2024 55.7315 39.2168 54.4048C37.2312 53.0781 35.6836 51.1923 34.7697 48.986C33.8558 46.7797 33.6167 44.352 34.0826 42.0098C34.5485 39.6676 35.6985 37.5161 37.3871 35.8275C39.0757 34.1389 41.2272 32.9889 43.5693 32.523C45.9115 32.0571 48.3393 32.2962 50.5456 33.2101C52.7519 34.124 54.6376 35.6716 55.9644 37.6572C57.2911 39.6428 57.9993 41.9773 57.9993 44.3654C57.9967 47.5669 56.7238 50.6366 54.46 52.9004C52.1961 55.1642 49.1265 56.4372 45.9249 56.4397ZM45.9249 33.4774C43.7715 33.4774 41.6664 34.116 39.8759 35.3124C38.0854 36.5087 36.6899 38.2092 35.8658 40.1987C35.0417 42.1882 34.8261 44.3774 35.2462 46.4895C35.6663 48.6015 36.7033 50.5416 38.226 52.0643C39.7487 53.587 41.6887 54.624 43.8008 55.0441C45.9128 55.4642 48.1021 55.2486 50.0916 54.4245C52.0811 53.6004 53.7815 52.2049 54.9779 50.4144C56.1743 48.6239 56.8129 46.5188 56.8129 44.3654C56.8078 41.4792 55.6591 38.7128 53.6183 36.672C51.5775 34.6312 48.811 33.4825 45.9249 33.4774Z" fill="#165DBA"/>
<path d="M43.8569 51.5885L37.0161 44.7476C36.9606 44.6925 36.9165 44.6269 36.8864 44.5546C36.8563 44.4824 36.8408 44.4049 36.8408 44.3266C36.8408 44.2484 36.8563 44.1709 36.8864 44.0986C36.9165 44.0264 36.9606 43.9608 37.0161 43.9057C37.0706 43.8489 37.1359 43.8038 37.2083 43.773C37.2806 43.7421 37.3584 43.7263 37.4371 43.7263C37.5157 43.7263 37.5935 43.7421 37.6659 43.773C37.7382 43.8038 37.8036 43.8489 37.858 43.9057L43.8474 49.895L53.9221 39.8394C54.0337 39.7278 54.1852 39.665 54.3431 39.665C54.501 39.665 54.6524 39.7278 54.764 39.8394C54.8757 39.9511 54.9384 40.1025 54.9384 40.2604C54.9384 40.4183 54.8757 40.5697 54.764 40.6814L43.8569 51.5885Z" fill="#165DBA"/>
</svg>
