<svg width="60" height="59" viewBox="0 0 60 59" fill="none" xmlns="http://www.w3.org/2000/svg">
<path d="M47.5303 32.4896V47.0996C47.5303 47.2693 47.5977 47.4321 47.7177 47.5522C47.8378 47.6722 48.0005 47.7396 48.1703 47.7396C48.34 47.7396 48.5028 47.6722 48.6228 47.5522C48.7428 47.4321 48.8103 47.2693 48.8103 47.0996V32.4896C48.8103 32.3199 48.7428 32.1571 48.6228 32.0371C48.5028 31.917 48.34 31.8496 48.1703 31.8496C48.0005 31.8496 47.8378 31.917 47.7177 32.0371C47.5977 32.1571 47.5303 32.3199 47.5303 32.4896Z" fill="#165DBA"/>
<path d="M36.5104 57.0004H16.5104C15.1843 57.0004 13.9126 56.4736 12.9749 55.5359C12.0372 54.5982 11.5104 53.3265 11.5104 52.0004V33.9304H36.5104C36.6802 33.9304 36.843 33.863 36.963 33.7429C37.083 33.6229 37.1504 33.4601 37.1504 33.2904C37.1504 33.1207 37.083 32.9579 36.963 32.8378C36.843 32.7178 36.6802 32.6504 36.5104 32.6504H8.33043C8.16069 32.6504 7.9979 32.7178 7.87788 32.8378C7.75786 32.9579 7.69043 33.1207 7.69043 33.2904C7.69043 33.4601 7.75786 33.6229 7.87788 33.7429C7.9979 33.863 8.16069 33.9304 8.33043 33.9304H10.2504V52.0004C10.2531 53.6545 10.9114 55.2402 12.081 56.4098C13.2507 57.5795 14.8363 58.2377 16.4904 58.2404H36.4904C36.6602 58.2404 36.823 58.173 36.943 58.0529C37.063 57.9329 37.1304 57.7701 37.1304 57.6004C37.1304 57.4306 37.063 57.2679 36.943 57.1478C36.823 57.0278 36.6602 56.9604 36.4904 56.9604L36.5104 57.0004Z" fill="#165DBA"/>
<path d="M32.5097 41.46H19.3597C19.19 41.46 19.0272 41.5274 18.9072 41.6474C18.7872 41.7674 18.7197 41.9302 18.7197 42.1C18.7197 42.2697 18.7872 42.4325 18.9072 42.5525C19.0272 42.6725 19.19 42.74 19.3597 42.74H32.5097C32.6795 42.74 32.8423 42.6725 32.9623 42.5525C33.0823 42.4325 33.1497 42.2697 33.1497 42.1C33.1497 41.9302 33.0823 41.7674 32.9623 41.6474C32.8423 41.5274 32.6795 41.46 32.5097 41.46Z" fill="#165DBA"/>
<path d="M6.55992 19C6.39018 19 6.2274 19.0674 6.10737 19.1875C5.98735 19.3075 5.91992 19.4703 5.91992 19.64C5.91992 19.8097 5.98735 19.9725 6.10737 20.0925C6.2274 20.2126 6.39018 20.28 6.55992 20.28H9.76992C9.93966 20.28 10.1024 20.2126 10.2225 20.0925C10.3425 19.9725 10.4099 19.8097 10.4099 19.64C10.4099 19.4703 10.3425 19.3075 10.2225 19.1875C10.1024 19.0674 9.93966 19 9.76992 19H6.55992Z" fill="#165DBA"/>
<path d="M32.5097 47.8604H19.3597C19.19 47.8604 19.0272 47.9278 18.9072 48.0478C18.7872 48.1678 18.7197 48.3306 18.7197 48.5004C18.7197 48.6701 18.7872 48.8329 18.9072 48.9529C19.0272 49.0729 19.19 49.1404 19.3597 49.1404H32.5097C32.6795 49.1404 32.8423 49.0729 32.9623 48.9529C33.0823 48.8329 33.1497 48.6701 33.1497 48.5004C33.1497 48.3306 33.0823 48.1678 32.9623 48.0478C32.8423 47.9278 32.6795 47.8604 32.5097 47.8604Z" fill="#165DBA"/>
<path d="M8.33 42.9H6.24C5.58339 42.9 4.93321 42.7707 4.32658 42.5194C3.71995 42.2682 3.16876 41.8999 2.70447 41.4356C1.76678 40.4979 1.24 39.2261 1.24 37.9V18.4C1.24 17.074 1.76678 15.8022 2.70447 14.8645C3.64215 13.9268 4.91392 13.4 6.24 13.4H50.12C51.4461 13.4 52.7178 13.9268 53.6555 14.8645C54.5932 15.8022 55.12 17.074 55.12 18.4V34.57C55.12 34.7398 55.1874 34.9026 55.3075 35.0226C55.4275 35.1426 55.5903 35.21 55.76 35.21C55.9297 35.21 56.0925 35.1426 56.2125 35.0226C56.3326 34.9026 56.4 34.7398 56.4 34.57V18.4C56.3974 16.7459 55.7391 15.1603 54.5694 13.9906C53.3998 12.821 51.8141 12.1627 50.16 12.16H46.16V5.75004C46.16 5.07429 46.0263 4.40523 45.7665 3.78142C45.5067 3.15761 45.1259 2.5914 44.6463 2.11544C44.1666 1.63947 43.5974 1.26317 42.9716 1.00823C42.3458 0.753296 41.6757 0.62476 41 0.630039H16.65C15.2921 0.630039 13.9898 1.16947 13.0296 2.12965C12.0694 3.08984 11.53 4.39213 11.53 5.75004V12.16H6.24C4.58586 12.1627 3.00023 12.821 1.83057 13.9906C0.66092 15.1603 0.00264451 16.7459 0 18.4L0 37.94C0.00264451 39.5942 0.66092 41.1798 1.83057 42.3495C3.00023 43.5191 4.58586 44.1774 6.24 44.18H8.33C8.49974 44.18 8.66252 44.1126 8.78255 43.9926C8.90257 43.8726 8.97 43.7098 8.97 43.54C8.97 43.3703 8.90257 43.2075 8.78255 43.0875C8.66252 42.9675 8.49974 42.9 8.33 42.9ZM12.85 5.75004C12.8657 4.75173 13.2727 3.79948 13.9834 3.09817C14.694 2.39686 15.6516 2.00254 16.65 2.00004H41C42.007 2.00268 42.972 2.40388 43.6841 3.11595C44.3962 3.82802 44.7974 4.79303 44.8 5.80004V12.16H12.85V5.75004Z" fill="#165DBA"/>
<path d="M51.3498 35.5001C51.1801 35.4536 50.9988 35.4766 50.846 35.5638C50.6932 35.651 50.5812 35.7953 50.5348 35.9651C50.4884 36.1348 50.5113 36.316 50.5985 36.4689C50.6857 36.6217 50.8301 36.7336 50.9998 36.7801C53.3267 37.4334 55.358 38.8673 56.7528 40.8412C58.1476 42.815 58.8209 45.2085 58.6598 47.6201C58.465 50.3972 57.1762 52.9836 55.0764 54.8116C52.9766 56.6395 50.2373 57.5597 47.4598 57.3701C45.0136 57.2017 42.7035 56.1826 40.93 54.4895C39.1565 52.7963 38.0315 50.5359 37.7501 48.1001C37.4686 45.6644 38.0485 43.2069 39.3891 41.1539C40.7297 39.1009 42.7465 37.5818 45.0898 36.8601C45.1732 36.8345 45.2507 36.7927 45.318 36.7371C45.3852 36.6815 45.4408 36.6133 45.4817 36.5362C45.5226 36.4591 45.5478 36.3747 45.5561 36.2879C45.5643 36.2011 45.5554 36.1134 45.5298 36.0301C45.5042 35.9467 45.4624 35.8691 45.4068 35.8019C45.3513 35.7347 45.283 35.679 45.2059 35.6382C45.1289 35.5973 45.0445 35.572 44.9577 35.5638C44.8708 35.5555 44.7832 35.5645 44.6998 35.5901C42.0647 36.407 39.798 38.1193 38.2918 40.4307C36.7856 42.7421 36.1345 45.5072 36.4513 48.2478C36.7681 50.9883 38.0327 53.532 40.0265 55.4389C42.0203 57.3457 44.6178 58.4957 47.3698 58.6901H48.1998C51.1903 58.6902 54.0698 57.5578 56.2591 55.5206C58.4484 53.4835 59.7849 50.6928 59.9998 47.7101C60.1803 44.9908 59.4188 42.2924 57.8434 40.0687C56.2681 37.845 53.975 36.2317 51.3498 35.5001Z" fill="#165DBA"/>
</svg>
