<svg width="60" height="59" viewBox="0 0 60 59" fill="none" xmlns="http://www.w3.org/2000/svg">
<path d="M47.8 33.9C41.1 33.9 35.6 39.4 35.6 46.1C35.6 52.8 41.1 58.3 47.8 58.3C54.5 58.3 60 52.8 60 46.1C60 39.4 54.5 33.9 47.8 33.9ZM36.9 46.1C36.9 43.5 37.8 41 39.6 39L54.9 54.3C50.4 58.2 43.5 57.7 39.6 53.2C37.9 51.2 36.9 48.7 36.9 46.1ZM55.8 53.4L40.5 38C45 34 51.8 34.4 55.9 38.8C59.6 43 59.6 49.3 55.8 53.4ZM33.2 45.4H30.5V6.1H40.6V16C40.6 17.7 42 19.1 43.7 19.1H53.6V32.9C53.6 33.3 53.9 33.5 54.3 33.5C54.7 33.5 54.9 33.2 54.9 32.9V18.9C54.9 18.8 54.9 18.7 54.9 18.6V18.5C54.9 18.4 54.9 18.3 54.8 18.2C54.7 17.4 54.3 16.7 53.7 16.2L43.5 5.9C43 5.4 42.3 5 41.6 4.9C41.5 4.9 41.4 4.8 41.3 4.8H41.2C41.1 4.8 41 4.8 40.9 4.8H30.6V0.6C30.6 0.2 30.3 0 29.9 0C29.5 0 29.3 0.3 29.3 0.6V51C29.3 51.4 29.6 51.6 30 51.6C30.4 51.6 30.6 51.3 30.6 51V46.8H33.3C33.7 46.8 33.9 46.5 33.9 46.1C33.9 45.7 33.6 45.4 33.2 45.4ZM52.9 17.1C53.1 17.3 53.3 17.6 53.4 17.8H43.7C42.7 17.8 41.9 17 42 16V6.4C42.2 6.5 42.4 6.6 42.6 6.8L52.9 17.1ZM0 28.2V25.6C0 25.2 0.3 25 0.6 25C0.9 25 1.2 25.3 1.2 25.6V28.2C1.2 28.6 0.9 28.8 0.6 28.8C0.3 28.9 0 28.6 0 28.2ZM0 23V20.4C0 20 0.3 19.8 0.6 19.8C0.9 19.8 1.2 20.1 1.2 20.4V23C1.2 23.4 0.9 23.6 0.6 23.6C0.3 23.6 0 23.4 0 23ZM0 17.8V15.2C0 14.8 0.3 14.6 0.6 14.6C0.9 14.6 1.2 14.9 1.2 15.2V17.8C1.2 18.2 0.9 18.4 0.6 18.4C0.3 18.4 0 18.2 0 17.8ZM0 33.4V30.8C0 30.4 0.3 30.2 0.6 30.2C0.9 30.2 1.2 30.5 1.2 30.8V33.4C1.3 33.8 1 34.1 0.7 34.1C0.4 34.1 0 33.8 0 33.4ZM0 12.6V10.4C0 10.2 0 10.1 0 9.9C0 9.5 0.4 9.3 0.7 9.3C1.1 9.3 1.3 9.7 1.3 10C1.3 10.1 1.3 10.2 1.3 10.3V12.5C1.3 12.9 1 13.1 0.7 13.1C0.3 13.3 0 13 0 12.6ZM0 38.6V36C0 35.6 0.3 35.4 0.6 35.4C0.9 35.4 1.2 35.7 1.2 36V38.6C1.2 39 0.9 39.2 0.6 39.2C0.3 39.2 0 39 0 38.6ZM21.2 5.4C21.2 5 21.5 4.8 21.8 4.8H24.4C24.8 4.8 25 5.1 25 5.5C25 5.9 24.7 6.1 24.4 6.1H21.8C21.5 6.1 21.2 5.8 21.2 5.4ZM10.8 5.4C10.8 5 11.1 4.8 11.4 4.8H14C14.4 4.8 14.7 5.1 14.7 5.5C14.7 5.8 14.4 6.1 14 6.1H11.4C11 6.1 10.8 5.8 10.8 5.4ZM16 5.4C16 5 16.3 4.8 16.6 4.8H19.2C19.6 4.8 19.9 5.1 19.9 5.4C19.9 5.8 19.6 6.1 19.3 6.1H16.7C16.3 6.1 16 5.8 16 5.4ZM22.2 46.1C22.2 46.5 21.9 46.7 21.6 46.7H19C18.6 46.7 18.3 46.4 18.3 46.1C18.3 45.8 18.6 45.4 18.9 45.4H21.5C21.9 45.5 22.2 45.8 22.2 46.1ZM17 46.1C17 46.5 16.7 46.7 16.4 46.7H13.8C13.4 46.7 13.1 46.4 13.1 46.1C13.1 45.8 13.4 45.4 13.7 45.4H16.3C16.7 45.4 17 45.7 17 46.1ZM27.4 46.1C27.4 46.5 27.1 46.7 26.8 46.7H24.2C23.8 46.7 23.6 46.4 23.6 46C23.6 45.6 23.9 45.4 24.2 45.4H26.8C27.1 45.4 27.4 45.7 27.4 46.1ZM2 43.3C2.2 43.6 2.1 44 1.9 44.2C1.8 44.3 1.7 44.3 1.5 44.3C1.3 44.3 1.1 44.2 1 44C0.4 43.2 0.1 42.2 0 41.2C0 40.8 0.3 40.5 0.6 40.5C1 40.5 1.3 40.8 1.3 41.1C1.3 42 1.6 42.7 2 43.3ZM11.8 46.1C11.8 46.5 11.5 46.7 11.2 46.7H8.5C8.1 46.7 7.9 46.4 7.9 46C7.9 45.6 8.2 45.4 8.5 45.4H11.1C11.5 45.4 11.8 45.7 11.8 46.1ZM4 6.7C3.3 7 2.7 7.5 2.2 8.1C2 8.3 1.9 8.3 1.7 8.3C1.6 8.3 1.4 8.2 1.3 8.2C1 8 0.9 7.6 1.2 7.3C1.8 6.5 2.6 5.9 3.5 5.5C3.8 5.3 4.2 5.5 4.4 5.8C4.5 6.1 4.3 6.5 4 6.7ZM6.6 46.1C6.6 46.4 6.3 46.7 6 46.7H5.9C4.9 46.6 4 46.3 3.2 45.9C2.9 45.8 2.7 45.4 2.9 45C3 44.7 3.4 44.5 3.8 44.7H3.9C4.5 45.1 5.2 45.3 6 45.4C6.3 45.4 6.6 45.7 6.6 46.1ZM8.8 6.1H6.2C5.9 6.1 5.6 5.8 5.6 5.5C5.6 5.1 5.8 4.8 6.2 4.8H8.8C9.2 4.8 9.4 5.1 9.4 5.4C9.4 5.7 9.2 6.1 8.8 6.1Z" fill="#165DBA"/>
</svg>
