<svg width="60" height="53" viewBox="0 0 60 53" fill="none" xmlns="http://www.w3.org/2000/svg">
<path d="M51.1704 0.99957C51.0566 0.888999 50.9041 0.827148 50.7454 0.827148C50.5867 0.827148 50.4343 0.888999 50.3204 0.99957C50.2632 1.05461 50.2178 1.12062 50.1867 1.19365C50.1557 1.26667 50.1396 1.34521 50.1396 1.42457C50.1396 1.50393 50.1557 1.58247 50.1867 1.65549C50.2178 1.72852 50.2632 1.79453 50.3204 1.84957C55.7406 7.27105 58.7855 14.6234 58.7855 22.2896C58.7855 29.9558 55.7406 37.3081 50.3204 42.7296C50.2098 42.8434 50.148 42.9959 50.148 43.1546C50.148 43.3133 50.2098 43.4657 50.3204 43.5796C50.3765 43.6367 50.4434 43.6821 50.5172 43.713C50.5911 43.7439 50.6704 43.7598 50.7504 43.7596C50.829 43.7596 50.9067 43.7436 50.9789 43.7127C51.0511 43.6817 51.1162 43.6365 51.1704 43.5796C53.9685 40.785 56.1882 37.4662 57.7027 33.8131C59.2172 30.16 59.9967 26.2442 59.9967 22.2896C59.9967 18.335 59.2172 14.4191 57.7027 10.766C56.1882 7.11292 53.9685 3.79417 51.1704 0.99957Z" fill="#165DBA"/>
<path d="M41.7798 9.53946C41.6686 9.65498 41.6064 9.8091 41.6064 9.96946C41.6064 10.1298 41.6686 10.2839 41.7798 10.3995C43.3541 11.9505 44.6029 13.8002 45.453 15.8402C46.303 17.8802 46.7371 20.0695 46.7298 22.2795C46.7177 26.7298 44.9496 30.9955 41.8098 34.1495C41.7378 34.2353 41.6909 34.3394 41.6741 34.4502C41.6574 34.5609 41.6715 34.6742 41.7149 34.7775C41.7583 34.8808 41.8293 34.9702 41.9201 35.0358C42.0109 35.1014 42.1181 35.1407 42.2298 35.1495C42.3098 35.1497 42.3891 35.1338 42.463 35.1029C42.5368 35.072 42.6037 35.0266 42.6598 34.9695C46.0299 31.5927 47.9279 27.0202 47.9398 22.2495C47.946 19.8805 47.4805 17.5339 46.5706 15.3466C45.6607 13.1593 44.3244 11.1751 42.6398 9.50946C42.5204 9.40218 42.3641 9.34537 42.2037 9.35096C42.0434 9.35656 41.8914 9.42413 41.7798 9.53946Z" fill="#165DBA"/>
<path d="M9.68023 0.99957C9.56638 0.888999 9.41393 0.827148 9.25523 0.827148C9.09653 0.827148 8.94407 0.888999 8.83023 0.99957C6.03217 3.79417 3.81243 7.11292 2.29793 10.766C0.783441 14.4191 0.00390625 18.335 0.00390625 22.2896C0.00390625 26.2442 0.783441 30.16 2.29793 33.8131C3.81243 37.4662 6.03217 40.785 8.83023 43.5796C8.8844 43.6365 8.94956 43.6817 9.02175 43.7127C9.09395 43.7436 9.17168 43.7596 9.25023 43.7596C9.33029 43.7598 9.40957 43.7439 9.48342 43.713C9.55727 43.6821 9.62419 43.6367 9.68023 43.5796C9.7908 43.4657 9.85265 43.3133 9.85265 43.1546C9.85265 42.9959 9.7908 42.8434 9.68023 42.7296C4.26005 37.3081 1.21514 29.9558 1.21514 22.2896C1.21514 14.6234 4.26005 7.27105 9.68023 1.84957C9.73739 1.79453 9.78286 1.72852 9.81392 1.65549C9.84498 1.58247 9.86099 1.50393 9.86099 1.42457C9.86099 1.34521 9.84498 1.26667 9.81392 1.19365C9.78286 1.12062 9.73739 1.05461 9.68023 0.99957Z" fill="#165DBA"/>
<path d="M18.2201 9.53956C18.1046 9.42834 17.9505 9.36621 17.7901 9.36621C17.6297 9.36621 17.4756 9.42834 17.3601 9.53956C15.688 11.2111 14.3616 13.1957 13.4567 15.3799C12.5517 17.5641 12.0859 19.9053 12.0859 22.2696C12.0859 24.6338 12.5517 26.975 13.4567 29.1592C14.3616 31.3435 15.688 33.328 17.3601 34.9996C17.4151 35.0567 17.4811 35.1022 17.5542 35.1333C17.6272 35.1643 17.7057 35.1803 17.7851 35.1803C17.8644 35.1803 17.943 35.1643 18.016 35.1333C18.089 35.1022 18.155 35.0567 18.2101 34.9996C18.2673 34.9445 18.3127 34.8785 18.3438 34.8055C18.3748 34.7325 18.3909 34.6539 18.3909 34.5746C18.3909 34.4952 18.3748 34.4167 18.3438 34.3436C18.3127 34.2706 18.2673 34.2046 18.2101 34.1496C16.6454 32.5931 15.4038 30.7427 14.5565 28.7048C13.7093 26.6668 13.2731 24.4816 13.2731 22.2746C13.2731 20.0675 13.7093 17.8823 14.5565 15.8444C15.4038 13.8064 16.6454 11.9561 18.2101 10.3996C18.3227 10.2853 18.3866 10.1319 18.3885 9.97157C18.3903 9.81121 18.33 9.65637 18.2201 9.53956Z" fill="#165DBA"/>
<path d="M30.0002 17.75C28.8083 17.6732 27.6346 18.0724 26.7366 18.8599C25.8386 19.6474 25.2896 20.759 25.2102 21.9507C25.1307 23.1425 25.5273 24.3171 26.3128 25.2168C27.0983 26.1165 28.2087 26.668 29.4002 26.75V51.67C29.4002 51.8292 29.4634 51.9818 29.576 52.0943C29.6885 52.2068 29.8411 52.27 30.0002 52.27C30.1594 52.27 30.312 52.2068 30.4245 52.0943C30.537 51.9818 30.6002 51.8292 30.6002 51.67V26.73C31.7918 26.648 32.9021 26.0965 33.6877 25.1968C34.4732 24.2971 34.8697 23.1225 34.7903 21.9307C34.7108 20.739 34.1619 19.6274 33.2639 18.8399C32.3659 18.0524 31.1921 17.6532 30.0002 17.73V17.75ZM30.0002 25.59C29.3436 25.59 28.7017 25.3953 28.1557 25.0305C27.6098 24.6657 27.1842 24.1472 26.9329 23.5406C26.6817 22.9339 26.6159 22.2664 26.744 21.6223C26.8721 20.9783 27.1883 20.3868 27.6526 19.9225C28.1169 19.4581 28.7085 19.1419 29.3525 19.0138C29.9965 18.8857 30.6641 18.9515 31.2707 19.2028C31.8774 19.454 32.3959 19.8796 32.7607 20.4256C33.1255 20.9715 33.3202 21.6134 33.3202 22.27C33.3202 23.1506 32.9704 23.995 32.3478 24.6176C31.7252 25.2403 30.8807 25.59 30.0002 25.59Z" fill="#165DBA"/>
</svg>
